# xmcd
#
# Track frame offsets: 
#        150
#        13194
#        24608
#        40225
#        51228
#        68224
#        84200
#        95488
#        113749
#        126948
#        139379
#        154502
#        167427
#        177796
#
# Disc length: 2505 seconds
#
# Revision: 0
# Processed by: cddbd v1.5.2PL0 Copyright (c) Steve Scherf et al.
# Submitted via: ExactAudioCopyFreeDBPlugin 1.0
#
DISCID=b209c70e
DTITLE=Clarence Carter - Patches
DYEAR=2009
DGENRE=Soul
TTITLE0=Patches
TTITLE1=You Talk Too Much
TTITLE2=Drift Away
TTITLE3=I've Got a Thing About You Baby
TTITLE4=Brick House
TTITLE5=Lovely Day
TTITLE6=Slip Away
TTITLE7=Easy
TTITLE8=Everybody Plays the Fool (Sometime)
TTITLE9=Starting All Over Again
TTITLE10=You Don't Have to Say You Love Me
TTITLE11=Back Stabbers
TTITLE12=Woman Don't Go Astray
TTITLE13=Too Weak to Fight
EXTD=
EXTT0=
EXTT1=
EXTT2=
EXTT3=
EXTT4=
EXTT5=
EXTT6=
EXTT7=
EXTT8=
EXTT9=
EXTT10=
EXTT11=
EXTT12=
EXTT13=
PLAYORDER=
